# xmcd
#
# Track frame offsets: 
#        150
#        12949
#        27825
#        40961
#        52057
#        66693
#        81707
#        105322
#        119054
#        130104
#
# Disc length: 1999 seconds
#
# Revision: 0
# Processed by: cddbd v1.5.2PL0 Copyright (c) Steve Scherf et al.
# Submitted via: ExactAudioCopy v1.3
#
DISCID=9107cd0a
DTITLE=Various Artist - Roots of Blues 2 [CD2)
DYEAR=2018
DGENRE=Blues
TTITLE0=Muddy Waters - Baby Please Don't Go
TTITLE1=Bo Diddley - I'm Going Home
TTITLE2=Arthur 'Big Boy' Crudup - That's Alright
TTITLE3=Lightnin’ Hopkins - Nothin' But The Blues
TTITLE4=Sonny Boy Williamson - Susie Q
TTITLE5=Willie Dixon - Pain In My Heart
TTITLE6=B.B. King - You Done Lost Your Good Thing Now
TTITLE7=Buddy Guy and Junior Wells - No Use Cryin'
TTITLE8=Lightnin' Slim - My Babe
TTITLE9=Howlin' Wolf - Howlin' For My Darlin'
EXTD=
EXTT0=
EXTT1=
EXTT2=
EXTT3=
EXTT4=
EXTT5=
EXTT6=
EXTT7=
EXTT8=
EXTT9=
PLAYORDER=
